<svg xmlns="http://www.w3.org/2000/svg" width="16" height="16" viewBox="0 0 1024 1024" version="1.1" class="icon">
    <!--  画的天线  -->

    <!--  画的半圆脸  -->
    <!--  画的眼睛  -->
    <!--  J  -->
    <!--  S  -->

    <path id="svg_1" fill="#A4C439"
          d="m213.504,5.61567a42.66667,42.66667 0 0 1 58.19733,15.872l85.33334,149.33333a42.66667,42.66667 0 1 1 -74.06934,42.32533l-85.33333,-149.33333a42.66667,42.66667 0 0 1 15.872,-58.19733zm596.992,0a42.66667,42.66667 0 0 0 -58.19733,15.872l-85.33334,149.33333a42.66667,42.66667 0 1 0 74.06934,42.32533l85.33333,-149.33333a42.66667,42.66667 0 0 0 -15.872,-58.19733z"/>
    <path id="svg_2" fill="#A4C439"
          d="m512,146.33333c-221.26933,0 -403.2,168.40534 -424.53333,384.04267c-2.34667,23.46667 16.98133,42.624 40.53333,42.624l768,0c23.552,0 42.88,-19.15733 40.53333,-42.624c-21.33333,-215.63733 -203.22133,-384.04267 -424.53333,-384.04267z"/>
    <path id="svg_3" fill="#FFFFFF"
          d="m341.33331,414.66667a42.66667,42.66667 0 1 1 0,-85.33333a42.66667,42.66667 0 0 1 0,85.33333zm341.33334,0a42.66667,42.66667 0 1 1 0,-85.33333a42.66667,42.66667 0 0 1 0,85.33333z"/>
    <path stroke="null" id="svg_4" fill="#F5DD1E"
          d="m423.00001,605.00203l-147.27273,0l0,258.82701c0,64.04354 -33.19527,81.9253 -90.963,81.9253c-27.07057,0 -51.44973,-3.07063 -70.41477,-7.38486l-15.3495,75.76943c27.06136,6.16562 68.59043,9.8611 101.0788,9.8611c132.63382,0 222.92121,-41.25559 222.92121,-159.53638l0,-259.4616l0,0z"/>
    <path stroke="null" id="svg_5" fill="#F5DD1E"
          d="m780.90474,599.03602c-119.9675,0 -195.90474,53.1208 -195.90474,123.3352c0,60.4675 58.48034,98.32624 143.51083,122.74481c61.49955,17.0936 85.80814,32.36653 85.80814,57.39601c0,27.47436 -28.09925,45.18492 -81.24757,45.18492c-49.3592,0 -94.16867,-12.84616 -124.53892,-25.66214l0,-0.02535l-23.53249,76.3284c28.87381,12.84374 82.78583,25.66214 141.22745,25.66214c140.48388,-0.00241 205.77255,-58.61905 205.77255,-127.61404c0,-58.61664 -41.76083,-96.46693 -132.10476,-123.34607c-66.82693,-20.75548 -94.91379,-32.35083 -94.91379,-58.60698c0,-20.76635 24.30239,-39.68425 74.42375,-39.68425c49.33287,0 83.25521,12.92705 103.02337,20.87622l29.62667,-77.27013c-30.98214,-10.6017 -72.71044,-19.31874 -131.15051,-19.31874l0,0z"/>

</svg>